<?xml version="1.0" encoding="utf-8"?>
<!-- Generator: Adobe Illustrator 26.0.0, SVG Export Plug-In . SVG Version: 6.00 Build 0)  -->
<svg version="1.1" id="Camada_1" xmlns="http://www.w3.org/2000/svg" xmlns:xlink="http://www.w3.org/1999/xlink" x="0px" y="0px"
	 viewBox="0 0 752.34 138.43" style="enable-background:new 0 0 752.34 138.43;" xml:space="preserve">
<style type="text/css">
	.st0{fill:#FFE00A;}
	.st1{fill:#1E1E1C;}
</style>
<path class="st0" d="M140.88,49.97l-20.14-34.89c-2.73-4.73-7.81-7.66-13.27-7.66h-43.2c-6.45,0-11.96,4.01-14.22,9.66l-1.1-0.63
	v0.71c-6.45-1.58-13.44,1.18-16.93,7.21L11.86,59.24c-2.73,4.73-2.73,10.6,0,15.32l21.6,37.42c2.84,4.91,8,7.65,13.3,7.65
	c0.72,0,1.45-0.06,2.17-0.17v1.27l0.62-0.36c1.85,6.38,7.74,11.06,14.71,11.06h40.29c5.46,0,10.54-2.93,13.27-7.66l21.6-37.42
	c3.22-5.58,2.51-12.36-1.25-17.15l1.1-0.64l-0.67-0.38c1.78-1.84,3.12-4.07,3.8-6.61C143.47,57.64,142.92,53.51,140.88,49.97z
	 M62.06,98.02V39.16l50.98,29.43l-5.84,3.37L62.06,98.02z M47.84,106.23c-1.05,0.61-2.4,0.25-3.01-0.81l-21.6-37.42
	c-0.39-0.68-0.39-1.52,0-2.2l20.14-34.89c0.41-0.71,1.15-1.1,1.91-1.1c0.37,0,0.75,0.09,1.1,0.3l1.45,0.84
	c0.68,0.39,1.1,1.12,1.1,1.91v71.47C48.94,105.11,48.51,105.84,47.84,106.23z M128.06,79.81l-21.6,37.42
	c-0.39,0.68-1.12,1.1-1.91,1.1H64.26c-1.21,0-2.2-0.99-2.2-2.2v-1.68c0-0.78,0.42-1.51,1.1-1.91l46.22-26.69l15.67-9.05
	c0.34-0.19,0.72-0.29,1.1-0.29c0.38,0,0.76,0.1,1.1,0.29C128.3,77.41,128.66,78.76,128.06,79.81z M63.16,24.65
	c-0.68-0.39-1.1-1.12-1.1-1.91c0-1.21,0.99-2.2,2.2-2.2h43.2c0.78,0,1.52,0.42,1.91,1.1l20.14,34.89c0.4,0.69,0.31,1.34,0.22,1.67
	c-0.09,0.33-0.34,0.94-1.02,1.34l-1.46,0.84c-0.68,0.39-1.52,0.39-2.2,0L63.16,24.65z"/>
<g>
	<g>
		<g>
			<path class="st1" d="M213.75,37.19c12.86,0,23.49,5.8,23.49,18.37c0,5.61-2.51,10.83-8.99,13.82c8.6,3.09,12.18,11.8,10.73,19.62
				c-2.03,10.93-11.12,15.86-24.65,15.86c-10.92,0-22.91,0-33.93,0V37.19H213.75z M195.18,63.48h18.37c5.9,0,8.8-2.42,8.8-6.38
				c0-3.96-2.9-6.86-8.6-6.86h-18.56V63.48z M195.18,91.71h18.56c6.77,0,9.96-3,9.96-7.73c0-4.74-3.48-7.93-10.15-7.93
				c-5.99,0-12.37,0-18.37,0V91.71z"/>
			<path class="st1" d="M261.99,76.34V64.06h9.38c4.93,0,12.28-0.39,12.37-6.67c0-2.9-1.93-7.64-11.99-7.64
				c-5.32,0-11.31,0.97-12.37,6.57h-14.98c1.26-15.18,14.6-20.3,27.45-20.3c11.21,0,24.65,4.54,26.68,17.4
				c1.26,7.54-2.13,14.02-8.6,16.82c8.03,3.29,11.5,10.54,10.35,18.46c-2.42,14.79-17.3,17.5-29,17.5
				c-13.15,0-26.88-6.09-27.94-21.94h15.18c0.77,6.38,6.57,8.51,12.86,8.51c4.16,0,13.15-1.06,13.15-8.22
				c0-2.61-0.58-8.22-12.18-8.22H261.99z"/>
			<path class="st1" d="M404.1,104.86h-13.54V73.63c0-7.64-3.38-10.15-7.35-10.15c-6.77,0-9.18,4.45-9.18,10.54v30.84H360.5V73.92
				c0-4.35,0-10.44-8.12-10.44c-6.38,0-8.41,4.45-8.41,10.05v31.32h-13.54V53.43h12.95v7.54h0.19c1.74-3.38,5.51-8.89,14.6-8.89
				c7.44,0,10.83,2.71,14.31,8.22c1.74-2.51,5.51-8.22,13.73-8.22c10.05,0,17.89,5.9,17.89,17.21V104.86z"/>
			<path class="st1" d="M454.28,94.8c0,6.09,1.35,7.44,3,8.03v2.03h-14.6c-0.77-2.42-0.97-3.19-1.26-6.09
				c-3.09,3.19-7.44,7.44-16.63,7.44c-7.73,0-15.66-4.35-15.66-14.99c0-10.05,6.38-15.18,14.99-16.44l12.18-1.84
				c2.13-0.29,4.74-1.16,4.74-4.06c0-5.7-5.42-5.99-8.89-5.99c-6.77,0-7.93,4.16-8.32,7.15h-13.05
				c1.55-15.76,12.47-17.98,23.01-17.98c7.25,0,20.5,2.22,20.5,14.89V94.8z M441.03,79.82c-1.35,1.06-3.58,1.93-9.19,2.8
				c-5.03,0.87-9.18,2.13-9.18,7.73c0,4.74,3.67,6.19,6.28,6.19c5.99,0,12.08-3.87,12.08-10.15V79.82z"/>
			<path class="st1" d="M462.4,53.43h12.95v8.89h0.19c2.8-5.22,5.89-10.25,14.11-10.25c0.87,0,1.74,0.1,2.61,0.19V66
				c-1.16-0.19-2.61-0.19-3.87-0.19c-10.54,0-12.47,6.57-12.47,12.28v26.78H462.4V53.43z"/>
			<path class="st1" d="M508.7,104.86h-13.54V35.45h13.54v37.51l17.01-19.53h16.63l-18.17,19.92l18.66,31.52h-16.24l-12.28-22.04
				l-5.61,5.8V104.86z"/>
			<path class="st1" d="M586.91,89.78c-3.58,12.37-13.82,16.44-22.62,16.44c-14.5,0-25.62-6.96-25.62-28.13
				c0-6.19,2.13-26.01,24.65-26.01c10.15,0,24.17,4.83,24.17,28.33v2.42h-35.29c0.39,3.87,1.16,12.57,12.08,12.57
				c3.77,0,7.64-1.93,8.7-5.61H586.91z M573.57,74.02c-0.77-8.31-6.09-10.83-10.44-10.83c-6.38,0-9.77,4.06-10.54,10.83H573.57z"/>
			<path class="st1" d="M607.8,53.43h8.41v9.67h-8.41v27.94c0,3,0.09,4.16,5.6,4.16c0.87,0,1.84-0.09,2.8-0.19v10.25
				c-2.13,0.09-4.25,0.19-6.38,0.19h-1.74c-11.7,0-13.83-4.45-13.83-11.12V63.1h-6.96v-9.67h6.96V39.51h13.54V53.43z"/>
			<path class="st1" d="M634.87,47.34h-13.54V34.77h13.54V47.34z M634.87,53.43v51.43h-13.54V53.43H634.87z"/>
			<path class="st1" d="M690.45,104.86h-13.53V73.63c0-3.77-0.19-10.15-8.8-10.15c-5.99,0-10.64,4.06-10.64,11.89v29.49h-13.53
				V53.43h12.95v7.54h0.19c1.84-3.09,5.7-8.89,15.47-8.89c10.06,0,17.88,5.9,17.88,17.21V104.86z"/>
			<path class="st1" d="M746.33,53.43v48.73c0,8.89-0.68,23.68-26.01,23.68c-10.63,0-21.85-4.54-22.43-15.47h14.69
				c0.58,2.61,1.64,5.22,9.48,5.22c7.25,0,10.73-3.48,10.73-11.79v-6.19l-0.19-0.19c-2.22,3.96-5.61,7.73-13.73,7.73
				c-12.37,0-22.14-8.6-22.14-26.59c0-17.79,10.05-26.49,21.36-26.49c9.57,0,13.44,5.61,15.08,8.99h0.19v-7.64H746.33z
				 M721.39,93.74c9.18,0,11.5-7.83,11.5-14.89c0-8.31-4.06-15.08-11.6-15.08c-5.03,0-10.64,3.67-10.64,15.66
				C710.66,86.01,713.37,93.74,721.39,93.74z"/>
		</g>
	</g>
</g>
</svg>
